<svg width="84" height="84" viewBox="0 0 84 84" fill="none" xmlns="http://www.w3.org/2000/svg">
<circle cx="41.9103" cy="41.5822" r="41.5822" fill="#7C1D11"/>
<path d="M49.9922 38.0396C49.5482 39.0243 49.3352 39.4636 48.7634 40.3335C47.9657 41.5488 46.8408 43.0604 45.4471 43.0741C44.2081 43.0853 43.8897 42.2686 42.2088 42.2772C40.5283 42.2861 40.1774 43.0882 38.9392 43.0769C37.5454 43.0642 36.4795 41.6985 35.6811 40.4842C33.4499 37.0875 33.2165 33.1016 34.5921 30.9828C35.57 29.4776 37.1131 28.5965 38.5643 28.5965C40.0419 28.5965 40.9704 29.4063 42.1913 29.4063C43.3762 29.4063 44.0978 28.5952 45.806 28.5952C47.0966 28.5952 48.4644 29.2989 49.4395 30.5122C46.2465 32.2618 46.7658 36.8201 49.9922 38.0396Z" fill="white"/>
<path d="M44.5113 27.2369C45.1317 26.4405 45.6029 25.3164 45.432 24.167C44.418 24.2371 43.232 24.8821 42.5403 25.7225C41.9121 26.4854 41.3935 27.6169 41.5948 28.7171C42.7019 28.751 43.8469 28.0899 44.5113 27.2369Z" fill="white"/>
<path d="M21.4529 47.8934C21.4529 48.5834 20.9283 49.1398 20.107 49.1398C19.3191 49.1398 18.7945 48.5824 18.8109 47.8934C18.7945 47.1722 19.3193 46.6309 20.1235 46.6309C20.9277 46.6309 21.4368 47.1722 21.4529 47.8934ZM18.8773 58.1481V50.1246H21.3713V58.1481H18.8773ZM25.5872 49.1897H22.6178V47.0898H31.1161V49.1897H28.0974V58.1481H25.5865L25.5872 49.1897ZM39.04 55.5726C39.04 56.6222 39.0731 57.4753 39.1049 58.1486H36.9394L36.8246 57.0167H36.7747C36.463 57.5085 35.7079 58.3297 34.2639 58.3297C32.6394 58.3297 31.4418 57.3115 31.4418 54.8343V50.1263H33.9523V54.4413C33.9523 55.6061 34.3296 56.3111 35.1991 56.3111C35.8888 56.3111 36.2822 55.8357 36.4459 55.4419C36.5108 55.2943 36.5268 55.0974 36.5268 54.9005V50.1263H39.038V55.5729H39.04V55.5726ZM41.0408 52.6838C41.0408 51.6824 41.008 50.8294 40.9755 50.1249H43.141L43.2558 51.2244H43.3057C43.6335 50.7162 44.4531 49.9447 45.783 49.9447C47.4239 49.9447 48.6533 51.0275 48.6533 53.3899V58.1481H46.16V53.7016C46.16 52.6688 45.7988 51.9627 44.8972 51.9627C44.2075 51.9627 43.7975 52.4391 43.6342 52.8968C43.5689 53.0608 43.5362 53.2906 43.5362 53.5202V58.1468H41.0421V52.6841L41.0408 52.6838ZM52.5742 54.9324C52.6563 55.966 53.6738 56.4584 54.8386 56.4584C55.6916 56.4584 56.381 56.3436 57.053 56.1307L57.3814 57.8197C56.5615 58.1482 55.5604 58.328 54.4769 58.328C51.7529 58.328 50.1951 56.7371 50.1951 54.226C50.1951 52.1914 51.4583 49.9447 54.2473 49.9447C56.84 49.9447 57.824 51.9617 57.824 53.9481C57.824 54.3747 57.7745 54.7523 57.7427 54.9321L52.5742 54.9324ZM55.5111 53.2252C55.5111 52.6189 55.248 51.6011 54.0999 51.6011C53.05 51.6011 52.6235 52.5522 52.5572 53.2252H55.5111ZM59.3002 55.9659C59.7606 56.2438 60.7113 56.5722 61.4496 56.5722C62.2046 56.5722 62.5163 56.3092 62.5163 55.8994C62.5163 55.4896 62.2699 55.2927 61.3348 54.9807C59.6774 54.4232 59.0377 53.5208 59.0544 52.5853C59.0544 51.076 60.3341 49.9434 62.3199 49.9434C63.2547 49.9434 64.0927 50.1571 64.5842 50.4035L64.1408 52.1264C63.7792 51.9295 63.0912 51.6663 62.4018 51.6663C61.7955 51.6663 61.4504 51.9127 61.4504 52.3225C61.4504 52.7002 61.7621 52.8974 62.7464 53.2415C64.2725 53.7662 64.9122 54.5379 64.9286 55.7188C64.9286 57.212 63.7475 58.3277 61.4504 58.3277C60.4011 58.3277 59.4642 58.0809 58.8578 57.7525L59.3002 55.9659Z" fill="white"/>
</svg>
