<svg width="84" height="84" viewBox="0 0 84 84" fill="none" xmlns="http://www.w3.org/2000/svg">
<circle cx="42.0744" cy="41.5822" r="41.5822" fill="#7C1D11"/>
<path d="M45.9056 50.2002C45.5007 50.2002 45.1651 50.3449 44.8942 50.637C44.6233 50.9292 44.4906 51.3257 44.4906 51.8288V52.6075H43.7215V53.2627H44.4906V57.4077H45.1981V53.2627H46.0812H47.2445V56.102C47.2445 57.0394 47.6337 57.5122 48.4173 57.5122C48.694 57.5122 48.9225 57.4603 49.0915 57.3603V56.705C48.9604 56.8113 48.8021 56.8617 48.6214 56.8617C48.3855 56.8617 48.2154 56.795 48.1134 56.6575C48.0114 56.5201 47.9615 56.2909 47.9615 55.9691V53.2627H49.0915V52.6075H47.9615V51.1878L47.2445 51.4347V52.6075H46.0812H45.1981V51.8668C45.1981 51.1887 45.4473 50.8507 45.9483 50.8507C46.126 50.8507 46.288 50.8898 46.4278 50.9741V50.2809C46.2997 50.2247 46.124 50.2002 45.9056 50.2002ZM20.8833 50.3901C20.7551 50.3901 20.6413 50.4373 20.5509 50.5326C20.4606 50.6279 20.418 50.7497 20.418 50.8934C20.418 51.0372 20.4606 51.1558 20.5509 51.2495C20.6413 51.3433 20.7551 51.3872 20.8833 51.3872C21.0144 51.3872 21.1287 51.3416 21.2204 51.2448C21.3122 51.1479 21.3581 51.0309 21.3581 50.8934C21.3581 50.7497 21.3122 50.6279 21.2204 50.5326C21.1287 50.4373 21.0144 50.3901 20.8833 50.3901ZM54.49 50.5753C54.2191 50.5753 53.9483 50.6079 53.6876 50.6797C53.4269 50.7516 53.1983 50.8605 52.9944 51.0074C52.7905 51.1542 52.6259 51.3411 52.5006 51.5676C52.3753 51.7942 52.3107 52.0638 52.3107 52.3701C52.3107 52.62 52.354 52.8346 52.4341 53.0205C52.5142 53.2065 52.6219 53.3722 52.7617 53.5191C52.9016 53.666 53.0709 53.8008 53.2603 53.9227C53.4496 54.0445 53.6496 54.1648 53.868 54.2835C54.0749 54.396 54.2682 54.5048 54.4473 54.6064C54.6265 54.7079 54.7815 54.8136 54.9126 54.9245C55.0437 55.0354 55.147 55.1605 55.2212 55.2949C55.2955 55.4292 55.3352 55.5837 55.3352 55.7649C55.3352 56.1024 55.2209 56.3639 54.9981 56.5436C54.7752 56.7233 54.4335 56.8095 53.982 56.8095C53.8509 56.8095 53.7091 56.7996 53.5547 56.7715C53.4003 56.7434 53.2518 56.6996 53.0989 56.6481C52.9459 56.5965 52.8004 56.5331 52.662 56.4581C52.5237 56.3831 52.4002 56.3002 52.3012 56.2065V57.1371C52.3828 57.1965 52.4933 57.2501 52.6288 57.2985C52.7643 57.347 52.9094 57.3844 53.0609 57.4172C53.2123 57.45 53.3615 57.476 53.5072 57.4932C53.6528 57.5104 53.7737 57.5217 53.8728 57.5217C54.1699 57.5217 54.45 57.486 54.7179 57.422C54.9859 57.3579 55.2248 57.2571 55.4302 57.1134C55.6355 56.9696 55.7983 56.7828 55.9192 56.5531C56.0401 56.3234 56.0996 56.0392 56.0996 55.7079C56.0996 55.458 56.0555 55.2369 55.9667 55.0432C55.8778 54.8495 55.7573 54.6755 55.6058 54.5162C55.4544 54.3568 55.2798 54.2106 55.0788 54.0794C54.8778 53.9481 54.6621 53.823 54.4378 53.7043C54.2193 53.5886 54.026 53.483 53.8586 53.3861C53.6911 53.2893 53.5525 53.1901 53.436 53.087C53.3195 52.9839 53.2298 52.8701 53.1701 52.7452C53.1104 52.6202 53.0799 52.4707 53.0799 52.2988C53.0799 52.1145 53.1199 51.9569 53.1986 51.8288C53.2772 51.7007 53.3819 51.5967 53.5072 51.5154C53.6325 51.4342 53.7743 51.3757 53.9345 51.3397C54.0947 51.3038 54.2539 51.2875 54.4141 51.2875C54.9938 51.2875 55.4685 51.4209 55.8385 51.6958V50.8127C55.5559 50.6533 55.1076 50.5753 54.49 50.5753ZM12.5742 50.6845V57.4077H13.2817V52.9066C13.2817 52.2973 13.267 51.8601 13.2437 51.5914H13.2627C13.3268 51.9007 13.3867 52.1299 13.4479 52.2798L15.5845 57.4077H15.9453L18.0867 52.2419C18.142 52.1106 18.2067 51.8945 18.2766 51.5914H18.2956C18.2548 52.107 18.2291 52.5409 18.2292 52.8971V57.4077H18.9604V50.6845H18.0392L16.0783 55.3518C16.0025 55.5331 15.9044 55.8093 15.7792 56.178H15.7554C15.7117 55.9999 15.6143 55.7302 15.4658 55.3708L13.5428 50.6845H12.5742ZM58.203 51.1878L57.4861 51.4347V52.6075H56.7169V53.2627H57.4861V56.102C57.4861 57.0394 57.88 57.5122 58.6636 57.5122C58.9403 57.5122 59.1593 57.4603 59.3283 57.3603V56.705C59.1972 56.8113 59.0389 56.8617 58.8582 56.8617C58.6223 56.8617 58.4569 56.795 58.355 56.6575C58.253 56.5201 58.203 56.2909 58.203 55.9691V53.2627H59.3283V52.6075H58.203V51.1878ZM24.7055 52.4935C24.0006 52.4935 23.4328 52.7356 23.0104 53.2152C22.5881 53.6949 22.3742 54.3286 22.3742 55.1192C22.3742 55.8285 22.5712 56.4069 22.963 56.8522C23.3548 57.2975 23.8729 57.5217 24.5108 57.5217C24.9827 57.5217 25.3873 57.4064 25.7311 57.1846V56.4534C25.3873 56.7315 25.0199 56.8712 24.6295 56.8712C24.1664 56.8712 23.7985 56.7119 23.5232 56.3869C23.248 56.0619 23.1102 55.6152 23.1102 55.0527C23.1102 54.4809 23.259 54.0226 23.5517 53.671C23.8445 53.3195 24.2197 53.144 24.677 53.144C25.0557 53.144 25.4085 53.2644 25.7406 53.5143V52.7309C25.4405 52.5747 25.0987 52.4935 24.7055 52.4935ZM31.913 52.4935C31.2139 52.4935 30.6572 52.7194 30.2465 53.1725C29.8357 53.6256 29.6292 54.256 29.6292 55.0622C29.6292 55.8028 29.828 56.3991 30.2227 56.8475C30.6174 57.2959 31.1473 57.5217 31.8086 57.5217C32.4873 57.5217 33.0242 57.2894 33.4277 56.8285C33.8311 56.3676 34.0354 55.7518 34.0354 54.9862C34.0354 54.2051 33.8495 53.5941 33.4752 53.1535C33.1008 52.7129 32.5801 52.4935 31.913 52.4935ZM36.6326 52.4935C36.4141 52.4935 36.2017 52.5244 35.9964 52.5837C35.791 52.6431 35.6058 52.7324 35.4456 52.8496C35.2854 52.9668 35.1571 53.113 35.061 53.2864C34.9649 53.4599 34.9186 53.655 34.9186 53.8799C34.9186 54.0643 34.9436 54.2268 34.9945 54.3642C35.0455 54.5017 35.1219 54.6268 35.2224 54.7346C35.3229 54.8424 35.4428 54.9383 35.5928 55.0242C35.7428 55.1102 35.9217 55.1962 36.1198 55.2806C36.2626 55.34 36.3949 55.3969 36.5187 55.4515C36.6425 55.5062 36.7498 55.568 36.8415 55.6367C36.9333 55.7055 37.006 55.7851 37.0599 55.8741C37.1138 55.9632 37.1406 56.0689 37.1406 56.197C37.1406 56.6469 36.825 56.8712 36.1958 56.8712C35.7268 56.8712 35.2994 56.72 34.9091 56.4107V57.2321C35.247 57.4227 35.6453 57.5217 36.1056 57.5217C36.3386 57.5217 36.5624 57.4925 36.7751 57.4362C36.9877 57.38 37.1769 57.2907 37.3401 57.1751C37.5032 57.0595 37.6318 56.918 37.7294 56.743C37.827 56.568 37.8766 56.3585 37.8766 56.121C37.8766 55.9273 37.8461 55.7631 37.7864 55.6225C37.7267 55.4819 37.6407 55.3552 37.53 55.2474C37.4193 55.1396 37.2837 55.0437 37.1264 54.9577C36.9691 54.8718 36.7927 54.7873 36.5946 54.7061C36.4461 54.6436 36.3123 54.5883 36.1958 54.5352C36.0793 54.4821 35.983 54.4204 35.9014 54.3547C35.8198 54.2891 35.7585 54.216 35.7162 54.1316C35.674 54.0472 35.6498 53.9432 35.6498 53.8182C35.6498 53.7182 35.674 53.6256 35.7162 53.5428C35.7585 53.46 35.8147 53.3885 35.8919 53.3292C35.9691 53.2698 36.0643 53.2243 36.172 53.1915C36.2798 53.1587 36.4036 53.144 36.5376 53.144C36.9659 53.144 37.3385 53.2594 37.6677 53.4906V52.7119C37.3618 52.5682 37.02 52.4935 36.6326 52.4935ZM40.9486 52.4935C40.2495 52.4935 39.6928 52.7194 39.282 53.1725C38.8713 53.6256 38.6648 54.256 38.6648 55.0622C38.6648 55.8028 38.8636 56.3991 39.2583 56.8475C39.653 57.2959 40.1829 57.5217 40.8441 57.5217C41.5229 57.5217 42.0598 57.2894 42.4632 56.8285C42.8667 56.3676 43.071 55.7518 43.071 54.9862C43.071 54.2051 42.885 53.5941 42.5107 53.1535C42.1364 52.7129 41.6157 52.4935 40.9486 52.4935ZM62.2721 52.4935C61.573 52.4935 61.0163 52.7194 60.6055 53.1725C60.1948 53.6256 59.9883 54.256 59.9883 55.0622C59.9883 55.8028 60.1871 56.3991 60.5818 56.8475C60.9765 57.2959 61.5064 57.5217 62.1676 57.5217C62.8464 57.5217 63.3833 57.2894 63.7867 56.8285C64.1902 56.3676 64.3945 55.7518 64.3945 54.9862C64.3945 54.2051 64.2085 53.5941 63.8342 53.1535C63.4599 52.7129 62.9392 52.4935 62.2721 52.4935ZM70.4103 52.4935C69.8248 52.4935 69.3283 52.7307 68.9336 53.201C68.5389 53.6712 68.3401 54.2774 68.3401 55.0242C68.3401 55.8148 68.5202 56.4306 68.8814 56.8665C69.2426 57.3024 69.7449 57.5217 70.377 57.5217C71.0237 57.5217 71.5459 57.3674 71.9391 57.0611V56.3394C71.5167 56.6956 71.0519 56.8712 70.548 56.8712C70.0994 56.8712 69.7455 56.725 69.4891 56.4344C69.2328 56.1438 69.0972 55.7342 69.0856 55.1999H72.243V54.7963C72.243 54.0745 72.0886 53.5122 71.7682 53.106C71.4478 52.6998 70.9958 52.4935 70.4103 52.4935ZM28.7318 52.522C28.4726 52.522 28.2389 52.6178 28.0291 52.8069C27.8194 52.9959 27.661 53.2576 27.5591 53.5951H27.5401V52.6075H26.8231V57.4077H27.5401V54.9625C27.5401 54.4282 27.6433 54.0041 27.8487 53.6948C28.0541 53.3854 28.3073 53.2295 28.6131 53.2295C28.8491 53.2295 29.0339 53.283 29.1592 53.3861V52.5885C29.0601 52.5447 28.9183 52.522 28.7318 52.522ZM67.4427 52.522C67.1835 52.522 66.9498 52.6178 66.74 52.8069C66.5303 52.9959 66.3719 53.2576 66.27 53.5951H66.2557V52.6075H65.5388V57.4077H66.2557V54.9625C66.2557 54.4282 66.359 54.0041 66.5643 53.6948C66.7697 53.3854 67.0277 53.2295 67.3335 53.2295C67.5695 53.2295 67.7495 53.283 67.8748 53.3861V52.5885C67.7758 52.5447 67.6292 52.522 67.4427 52.522ZM20.5177 52.6075V57.4077H21.2299V52.6075H20.5177ZM31.8561 53.144C32.3192 53.144 32.6801 53.3033 32.9291 53.6283C33.1782 53.9533 33.2995 54.4148 33.2995 55.0147C33.2995 55.6084 33.1782 56.0698 32.9291 56.3917C32.6801 56.7135 32.3192 56.8712 31.8561 56.8712C31.4016 56.8712 31.0397 56.7103 30.7688 56.3822C30.4979 56.0541 30.3652 55.6024 30.3652 55.0337C30.3652 54.4431 30.496 53.9832 30.764 53.6473C31.032 53.3114 31.3958 53.144 31.8561 53.144ZM40.8916 53.144C41.3548 53.144 41.7156 53.3033 41.9647 53.6283C42.2137 53.9533 42.335 54.4148 42.335 55.0147C42.335 55.6084 42.2137 56.0698 41.9647 56.3917C41.7156 56.7135 41.3548 56.8712 40.8916 56.8712C40.4372 56.8712 40.0752 56.7103 39.8043 56.3822C39.5334 56.0541 39.4007 55.6024 39.4007 55.0337C39.4007 54.4431 39.5316 53.9832 39.7996 53.6473C40.0676 53.3114 40.4314 53.144 40.8916 53.144ZM62.2151 53.144C62.6783 53.144 63.0391 53.3033 63.2882 53.6283C63.5372 53.9533 63.6585 54.4148 63.6585 55.0147C63.6585 55.6084 63.5372 56.0698 63.2882 56.3917C63.0391 56.7135 62.6783 56.8712 62.2151 56.8712C61.7607 56.8712 61.3987 56.7103 61.1278 56.3822C60.8569 56.0541 60.7242 55.6024 60.7242 55.0337C60.7242 54.4431 60.8551 53.9832 61.1231 53.6473C61.3911 53.3114 61.7549 53.144 62.2151 53.144ZM70.396 53.144C70.7456 53.144 71.0161 53.2627 71.2127 53.5096C71.4093 53.7564 71.5089 54.1057 71.5118 54.5494H69.0951C69.1504 54.1307 69.2959 53.7879 69.5319 53.5286C69.7678 53.2692 70.0581 53.144 70.396 53.144Z" fill="white"/>
<path d="M33.084 25.5889V34.7218H42.3629V25.5889H33.084Z" fill="#D03F42"/>
<path d="M35.668 27.9795V34.7285H42.3709V27.9795H35.668Z" fill="#DA773C"/>
<path d="M37.9043 30.2554V34.7353H42.378V30.2554H37.9043Z" fill="#E39735"/>
<path d="M33.084 35.5176V44.6489H42.3629V35.5176H33.084Z" fill="#3C68AC"/>
<path d="M35.668 35.5093V42.2599H42.3709V35.5093H35.668Z" fill="#467BC0"/>
<path d="M37.9043 35.5024V39.9824H42.378V35.5024H37.9043Z" fill="#84ACDD"/>
<path d="M43.084 25.5889V34.7218H52.3629V25.5889H43.084Z" fill="#7AB951"/>
<path d="M43.0781 27.9795V34.7285H49.781V27.9795H43.0781Z" fill="#91BF4E"/>
<path d="M43.0703 30.2554V34.7353H47.544V30.2554H43.0703Z" fill="#C5D743"/>
<path d="M43.084 35.5176V44.6489H52.3629V35.5176H43.084Z" fill="#ECB842"/>
<path d="M43.0781 35.5093V42.2599H49.781V35.5093H43.0781Z" fill="#F3D332"/>
<path d="M43.0703 35.5024V39.9824H47.544V35.5024H43.0703Z" fill="#F8E67A"/>
</svg>
