<svg width="84" height="84" viewBox="0 0 84 84" fill="none" xmlns="http://www.w3.org/2000/svg">
<circle cx="41.5822" cy="41.5822" r="41.5822" fill="#7C1D11"/>
<path d="M61.5234 49.3162C61.5234 49.3162 62.2163 49.3505 63.4047 49.4363V31.9888L61.5234 31.9918V49.3162" fill="white"/>
<path d="M29.8516 33.7305H31.9004V48.9094C31.9004 48.9094 32.3405 48.875 33.7767 48.8412L33.7857 33.7344H35.8602V31.9926L29.8516 31.9922V33.7305" fill="white"/>
<path d="M12.5802 46.9875L12.4473 47.0038L10.1574 31.9951L7.10742 31.9912L7.10862 50.8304C7.10862 50.8304 7.71443 50.7437 9.00215 50.5959L8.86958 36.2783L9.00198 36.2654L11.1804 50.3728C11.1804 50.3728 11.9249 50.2849 14.4578 50.0347V31.9925L12.5121 31.9933L12.5802 46.9875" fill="white"/>
<path d="M76.1419 31.9888H74.0217L72.9565 38.7204H72.8312L71.7265 31.9888H69.6445L71.2709 40.315L69.699 50.0464L71.7209 50.2387L72.7626 42.2159L72.8904 42.2179L73.8999 50.4646L76.1179 50.7128L74.5331 40.5527L76.1419 31.9888" fill="white"/>
<path d="M53.7424 31.9863L51.8535 31.9902V48.8485C51.8535 48.8485 53.1337 48.8839 56.22 49.0213V47.3118C56.22 47.3118 55.8746 47.2756 53.7424 47.2022V31.9863" fill="white"/>
<path d="M20.7285 49.5231C20.7285 49.5231 21.8434 49.4466 25.068 49.2392V47.5171L22.6302 47.6849V41.6497L25.068 41.6479V39.8922L22.6205 39.893V33.7324H25.0759V31.9902L20.7285 31.9924V49.5231Z" fill="white"/>
<path d="M41.5273 48.7105H43.4333V41.6497L45.8704 41.647V39.8918L43.4239 39.893V33.7324H45.8794V31.9902L41.5273 31.9915V48.7105" fill="white"/>
</svg>
