<svg width="84" height="84" viewBox="0 0 84 84" fill="none" xmlns="http://www.w3.org/2000/svg">
<circle cx="41.7463" cy="41.5822" r="41.5822" fill="#7C1D11"/>
<path fill-rule="evenodd" clip-rule="evenodd" d="M15.6662 27.0729C13.4609 28.7269 12.5853 29.9268 13.1042 31.9375C13.6231 33.9482 15.3419 37.3858 17.5472 39.9154C19.7525 42.445 20.4011 43.3206 20.8551 43.3206C21.2767 43.3206 21.4713 43.1585 21.5037 42.899C21.5686 42.6396 19.2984 35.44 19.266 35.3103C19.2012 35.0833 21.6983 33.786 22.1523 33.0401C22.6064 32.2618 23.8712 30.5106 22.4118 28.435C20.8875 26.3594 17.8715 25.419 15.6662 27.0729ZM19.8822 31.3538C19.8173 32.1645 17.6769 33.0077 17.2878 32.5537C15.6987 30.6727 16.2824 30.0565 16.704 29.4728C17.158 28.9215 18.1958 28.9863 18.9417 29.4404C19.5579 29.8619 19.9146 30.7051 19.8822 31.3538Z" fill="white"/>
<path fill-rule="evenodd" clip-rule="evenodd" d="M32.9836 30.2188C32.3025 28.0459 31.2972 25.5163 28.8973 24.3488C27.0812 23.4408 25.33 24.5758 25.0705 24.9974C24.6489 25.6136 23.7409 30.0566 24.8111 34.2077C25.8813 38.3588 27.7947 42.4451 28.2812 40.3047C28.7676 38.1642 28.2487 36.7049 28.2163 35.6995C28.1839 34.6942 28.0541 33.6564 28.7027 33.2997C29.3514 32.9429 29.8378 32.5862 30.7134 33.1375C31.5566 33.6888 32.1728 35.8941 32.8539 36.867C33.5349 37.8399 34.7997 40.4992 34.3132 36.6076C33.8268 32.7483 33.6322 32.2295 32.9836 30.2188ZM29.9675 30.1215C29.8378 30.4458 26.8542 31.6457 27.1137 29.7972C27.2109 29.2134 27.3082 27.073 28.4433 27.9162C29.5459 28.727 30.0648 29.862 29.9675 30.1215Z" fill="white"/>
<path fill-rule="evenodd" clip-rule="evenodd" d="M38.1408 21.0732C39.2435 20.8462 41.3839 21.2029 41.1569 20.2949C41.0271 19.7435 39.4705 17.1815 35.5464 17.895C31.6223 18.6085 30.4548 19.9706 29.9683 20.4246C29.4494 20.8786 27.8603 23.1163 31.0061 22.7596C33.1141 22.5326 33.2762 21.2353 34.1843 23.6676C34.768 25.1919 35.3518 27.8187 35.6761 31.7104C36.0004 35.4399 37.4273 37.3209 37.8489 37.1912C39.2759 36.7047 37.4273 28.6295 37.3301 26.1648C37.2328 24.6405 37.0382 21.3002 38.1408 21.0732Z" fill="white"/>
<path fill-rule="evenodd" clip-rule="evenodd" d="M47.221 25.4191C46.6373 27.6244 46.6697 28.9216 46.6049 29.8621C46.5076 31.3863 45.7617 31.9052 44.3996 31.1917C43.0375 30.4782 43.4267 28.4027 43.6861 27.0406C43.9456 25.6785 44.659 23.7976 43.8807 22.9219C43.8807 22.9219 42.8429 22.0787 42.1294 24.1867C41.416 26.3271 40.8322 30.2512 40.5079 31.9052C40.216 33.5267 39.9566 38.3264 39.989 39.0075C40.0215 39.6885 39.7296 41.0182 40.7674 41.1155C41.8051 41.2128 42.7132 36.413 42.7456 35.8942C42.8105 35.4077 43.1024 33.6564 43.5564 33.4619C44.0104 33.2348 45.7292 33.4619 45.7617 34.3051C45.7941 34.8564 45.9562 36.8022 45.859 37.8076C45.7292 39.2021 44.9509 41.6019 46.313 41.8614C46.9292 41.9911 47.4156 40.9857 47.6751 39.7534C47.8372 38.9426 47.9345 36.4455 48.0642 34.9212C48.194 33.4619 48.4858 31.7106 48.7777 30.381C49.0696 29.0513 49.3615 27.3001 49.4263 26.7163C49.4912 26.1326 49.5885 24.7705 49.2317 24.3813C48.9074 24.0246 47.8048 23.2138 47.221 25.4191Z" fill="white"/>
<path fill-rule="evenodd" clip-rule="evenodd" d="M61.7811 24.316C60.7758 23.7647 58.4408 22.7594 57.5327 22.7918C57.0139 22.8242 56.6571 23.1485 56.6895 23.635C56.722 24.1214 57.176 24.6079 58.7651 25.0295C60.3542 25.4511 60.9055 25.743 61.2623 25.5808C61.6514 25.3862 62.7865 24.8673 61.7811 24.316Z" fill="white"/>
<path fill-rule="evenodd" clip-rule="evenodd" d="M56.0398 26.262C54.1588 26.3593 52.894 28.4997 52.5373 29.1159C52.2454 29.6348 49.7807 37.3208 49.7158 38.3262C49.651 39.3315 48.7754 41.5368 52.4724 42.4449C53.0562 42.5746 55.7155 42.6719 55.8776 41.2125C56.0398 39.7531 54.7426 39.6558 53.3805 39.4937C52.0184 39.3315 51.9211 37.6127 52.2779 37.029C53.8021 34.4994 55.002 35.3102 55.7804 34.9858C56.5587 34.694 56.9479 33.3319 56.0074 32.9103C55.0669 32.4887 53.9642 32.4563 54.2886 30.932C54.6453 29.3429 55.1966 29.1808 55.5533 28.9538C56.9479 27.9808 57.8883 29.7645 58.4721 29.8618C59.0558 29.9591 60.6125 29.3754 59.9315 28.3376C58.6991 26.489 57.8883 26.1647 56.0398 26.262Z" fill="white"/>
<path fill-rule="evenodd" clip-rule="evenodd" d="M62.6894 40.5962C62.2678 40.5638 61.4246 40.726 61.2624 41.2449C61.1327 41.7962 61.3922 43.0285 62.657 42.9312C63.5002 42.8664 63.792 42.3151 63.8569 41.8935C63.9218 41.5367 63.8245 40.6611 62.6894 40.5962Z" fill="white"/>
<path fill-rule="evenodd" clip-rule="evenodd" d="M68.8204 25.4515C67.4259 24.738 65.9989 25.5812 65.3828 26.2622C64.7666 26.9433 63.4045 33.2348 63.2099 34.5645C63.0153 35.7644 62.8856 36.8346 62.9505 37.7427C63.0153 38.8453 63.3721 39.202 64.118 38.6831C64.8639 38.1318 65.5449 36.6076 66.2584 35.4725C67.0043 34.2726 69.2744 30.3809 69.6636 29.2783C70.0528 28.1756 70.2149 26.1325 68.8204 25.4515Z" fill="white"/>
<path d="M21.1194 51.9661H17.2869V50.969H26.1048V51.9661H22.2723V61.8745H21.1194V51.9661ZM37.0604 50.969V61.8745H35.9231V56.8424H29.0994V61.8745H27.9466V50.969H29.0994V55.8298H35.9231V50.969H37.0604ZM45.0133 61.968C43.6008 61.968 42.4998 61.5629 41.7105 60.7528C40.9211 59.9427 40.5265 58.7638 40.5265 57.2163V50.969H41.6793V57.1696C41.6793 58.4367 41.9649 59.3818 42.5362 60.005C43.1074 60.6282 43.9331 60.9398 45.0133 60.9398C46.1038 60.9398 46.9347 60.6282 47.506 60.005C48.0772 59.3818 48.3628 58.4367 48.3628 57.1696V50.969H49.4845V57.2163C49.4845 58.7638 49.0899 59.9427 48.3005 60.7528C47.5215 61.5629 46.4258 61.968 45.0133 61.968ZM52.9586 50.969H54.1115V61.8745H52.9586V50.969ZM60.6666 61.968C59.8564 61.968 59.0775 61.8382 58.3297 61.5785C57.5923 61.3189 57.021 60.9761 56.616 60.5503L57.0677 59.6623C57.4624 60.0569 57.9869 60.3789 58.6413 60.6282C59.2956 60.8671 59.9707 60.9865 60.6666 60.9865C61.6429 60.9865 62.3751 60.8099 62.8632 60.4568C63.3514 60.0933 63.5955 59.6259 63.5955 59.0547C63.5955 58.6184 63.4604 58.2705 63.1904 58.0109C62.9307 57.7512 62.6088 57.5539 62.2245 57.4188C61.8402 57.2734 61.3053 57.1176 60.6198 56.9515C59.7993 56.7437 59.145 56.5464 58.6568 56.3594C58.1687 56.1621 57.748 55.8661 57.3949 55.4714C57.0522 55.0768 56.8808 54.5419 56.8808 53.8668C56.8808 53.3163 57.0262 52.8178 57.317 52.3712C57.6078 51.9142 58.0544 51.5506 58.6568 51.2806C59.2592 51.0106 60.007 50.8755 60.9003 50.8755C61.5234 50.8755 62.131 50.9638 62.723 51.1404C63.3254 51.3066 63.8447 51.5403 64.281 51.8415L63.8915 52.7606C63.4345 52.4594 62.9463 52.2361 62.427 52.0907C61.9077 51.9349 61.3988 51.857 60.9003 51.857C59.9447 51.857 59.2229 52.044 58.7347 52.4179C58.257 52.7814 58.0181 53.254 58.0181 53.8356C58.0181 54.2718 58.1479 54.625 58.4076 54.895C58.6776 55.1547 59.01 55.3572 59.4046 55.5026C59.8097 55.6376 60.3498 55.7882 61.0249 55.9544C61.8246 56.1517 62.4686 56.3491 62.9567 56.5464C63.4553 56.7334 63.8759 57.0242 64.2186 57.4188C64.5614 57.8031 64.7328 58.3276 64.7328 58.9923C64.7328 59.5428 64.5822 60.0465 64.281 60.5035C63.9901 60.9501 63.5383 61.3085 62.9256 61.5785C62.3128 61.8382 61.5598 61.968 60.6666 61.968Z" fill="white"/>
</svg>
