<?xml version="1.0" standalone="no"?>
<!DOCTYPE svg PUBLIC "-//W3C//DTD SVG 20010904//EN"
 "http://www.w3.org/TR/2001/REC-SVG-20010904/DTD/svg10.dtd">
<svg version="1.0" xmlns="http://www.w3.org/2000/svg"
 width="1624.000000pt" height="1624.000000pt" viewBox="0 0 1624.000000 1624.000000"
 preserveAspectRatio="xMidYMid meet">
<metadata>
Created by potrace 1.11, written by Peter Selinger 2001-2013
</metadata>
<g transform="translate(0.000000,1624.000000) scale(0.100000,-0.100000)"
fill="#000000" stroke="none">
<path d="M5241 12337 c-5 -12 -20 -50 -34 -84 -14 -34 -22 -64 -19 -67 3 -3 0
-6 -7 -6 -7 0 -9 -4 -6 -10 3 -5 2 -10 -3 -10 -5 0 -9 -6 -9 -14 0 -7 -11 -42
-26 -77 -22 -55 -35 -88 -42 -109 -2 -7 -34 -80 -45 -105 -7 -17 -22 -59 -25
-75 -1 -3 -9 -22 -18 -44 -9 -21 -17 -41 -17 -43 0 -3 -6 -19 -14 -36 -8 -18
-38 -93 -66 -167 -29 -74 -58 -148 -64 -165 -7 -16 -23 -57 -35 -90 -12 -33
-29 -73 -37 -88 -8 -16 -14 -37 -14 -48 0 -10 -4 -19 -8 -19 -5 0 -9 -6 -9
-12 0 -7 -7 -29 -15 -48 -9 -19 -41 -100 -71 -180 -31 -80 -65 -167 -77 -195
-12 -27 -22 -58 -23 -67 -1 -10 -5 -18 -9 -18 -4 0 -8 -8 -8 -18 0 -10 -4 -22
-9 -28 -4 -5 -15 -29 -24 -54 -15 -45 -25 -71 -127 -330 -68 -175 -71 -184
-72 -190 0 -3 -8 -21 -18 -40 -10 -19 -18 -39 -19 -45 -1 -12 -115 -305 -137
-352 -8 -17 -14 -34 -14 -39 0 -7 -79 -211 -101 -259 -4 -11 -44 -112 -87
-225 -43 -113 -83 -214 -87 -225 -5 -11 -9 -22 -10 -25 -1 -3 -7 -18 -13 -33
-7 -16 -12 -31 -12 -34 0 -3 -7 -19 -15 -36 -8 -18 -51 -126 -95 -242 -45
-115 -85 -219 -90 -230 -4 -11 -8 -23 -9 -27 -2 -7 -8 -22 -44 -108 -6 -14
-11 -27 -11 -30 -2 -7 -115 -299 -131 -335 -7 -16 -38 -97 -70 -180 -31 -82
-64 -162 -71 -177 -8 -16 -12 -28 -9 -28 3 0 0 -10 -7 -22 -7 -13 -13 -25 -13
-28 -1 -3 -7 -18 -13 -33 -7 -16 -12 -35 -12 -43 0 -8 -5 -14 -10 -14 -6 0
-10 -6 -9 -12 1 -7 -3 -24 -8 -38 -17 -40 -164 -414 -167 -425 -2 -5 -8 -23
-15 -40 -7 -16 -27 -68 -45 -115 -18 -47 -37 -94 -41 -105 -4 -11 -9 -26 -11
-34 -1 -7 -7 -18 -13 -24 -6 -6 -11 -16 -11 -23 0 -6 -8 -29 -17 -50 -9 -22
-18 -43 -19 -49 -1 -5 -20 -53 -41 -105 -22 -52 -40 -97 -41 -100 -2 -10 -104
-275 -153 -395 -7 -16 -13 -34 -15 -40 -1 -5 -8 -23 -15 -40 -7 -16 -13 -32
-14 -35 -1 -3 -7 -18 -14 -35 -6 -16 -25 -66 -42 -110 -17 -44 -38 -98 -48
-120 -10 -22 -22 -51 -25 -65 -4 -14 -11 -34 -16 -45 -5 -11 -23 -56 -40 -100
-17 -44 -35 -89 -39 -100 -12 -27 -24 -58 -26 -71 -2 -6 -10 -27 -18 -45 -28
-62 -77 -191 -77 -203 0 -6 -8 -21 -18 -33 -16 -20 -29 -22 -157 -28 -77 -3
-165 -7 -195 -10 -30 -2 -100 -7 -155 -10 -144 -8 -220 -13 -305 -21 -41 -3
-108 -7 -147 -8 -40 0 -73 -3 -73 -6 0 -3 -15 -6 -32 -7 -53 -2 -297 -23 -428
-38 -19 -2 -57 -6 -85 -9 -27 -3 -68 -9 -90 -12 -22 -3 -51 -7 -65 -9 -14 -2
-45 -7 -70 -11 -25 -3 -56 -8 -70 -9 -101 -12 -289 -64 -323 -90 -60 -44 52
-92 328 -140 17 -3 41 -7 55 -10 14 -2 48 -7 75 -10 28 -3 70 -8 95 -11 25 -3
55 -7 68 -7 12 -1 22 -3 22 -6 0 -4 17 -6 38 -7 39 0 160 -10 227 -19 22 -2
72 -7 110 -10 39 -3 93 -8 120 -10 28 -3 86 -7 130 -10 44 -2 80 -5 80 -6 0
-1 25 -3 55 -4 30 -2 89 -6 130 -9 41 -3 116 -8 165 -11 50 -3 119 -7 155 -10
85 -6 288 -16 368 -20 34 -1 65 -5 68 -8 3 -3 16 -2 29 3 13 5 26 6 29 3 3 -3
36 -7 73 -9 38 -1 129 -5 203 -8 247 -11 374 -16 493 -21 64 -2 122 -7 127
-10 6 -3 10 -1 10 5 0 6 4 8 10 5 10 -6 112 -11 420 -20 91 -2 246 -7 345 -10
99 -3 274 -8 388 -10 114 -2 213 -7 219 -11 7 -5 8 -3 3 6 -5 9 -4 11 4 6 17
-11 300 -17 1436 -33 1026 -14 4485 -6 4502 11 3 3 13 1 23 -4 10 -5 20 -7 23
-4 3 3 133 8 289 10 156 2 371 6 478 9 107 3 299 7 425 10 127 3 295 7 375 10
80 2 233 7 340 10 324 10 356 12 368 19 6 3 13 2 17 -4 4 -6 10 -8 15 -5 5 3
75 8 157 10 272 10 512 20 713 31 52 2 138 6 190 9 103 4 241 12 360 20 42 3
116 8 165 10 86 5 138 9 285 20 36 2 99 7 140 10 41 3 100 8 130 11 30 3 80 7
110 9 30 2 79 6 108 9 28 3 76 8 105 11 149 15 321 35 421 51 22 3 52 8 66 10
35 4 119 21 155 30 6 2 23 6 38 9 56 11 135 46 141 62 12 31 -43 65 -140 88
-10 2 -38 9 -62 15 -23 5 -58 13 -78 16 -20 3 -44 7 -53 9 -9 2 -44 7 -76 11
-33 4 -62 9 -65 9 -6 2 -135 18 -162 21 -10 1 -19 2 -20 3 -2 1 -25 4 -53 6
-27 2 -72 6 -100 9 -112 13 -163 17 -215 21 -30 2 -55 4 -55 5 0 2 -17 3 -175
14 -104 7 -189 13 -290 21 -36 3 -105 8 -155 11 -49 3 -117 7 -150 9 -88 5
-314 17 -359 19 -22 1 -41 7 -43 13 -2 6 10 47 27 90 18 43 33 83 34 88 1 6
10 28 20 50 10 22 19 45 20 50 3 10 15 41 39 100 6 17 12 32 13 35 1 6 22 59
33 85 10 23 24 57 25 65 1 6 64 165 76 195 5 11 37 92 70 180 71 184 87 225
111 280 9 22 26 65 37 95 11 30 35 91 52 135 17 44 33 85 34 90 2 6 9 26 17
45 7 19 12 38 11 43 -1 4 2 7 8 7 5 0 10 8 10 18 0 10 4 22 8 27 4 6 16 35 26
65 11 30 22 60 26 65 4 6 15 35 25 65 10 30 21 60 25 65 3 6 14 30 23 55 9 25
22 59 28 75 7 17 13 32 14 35 1 3 7 19 14 35 7 17 14 35 15 40 2 6 9 24 15 40
7 17 26 65 42 109 16 43 33 84 36 90 4 6 8 16 9 21 2 13 130 339 150 382 8 17
14 33 14 36 0 3 5 18 12 34 6 15 12 33 13 38 2 6 11 31 22 55 11 25 25 59 30
75 6 17 15 39 19 50 4 11 6 23 6 28 -1 4 3 7 10 7 6 0 9 2 6 5 -3 3 8 38 24
78 16 40 46 115 65 167 20 52 44 113 54 135 9 23 21 53 24 68 4 15 11 30 16
33 5 3 9 15 9 28 0 12 4 26 9 31 16 17 51 119 43 126 -7 6 -187 79 -207 84 -5
1 -19 6 -30 10 -11 4 -35 14 -53 21 -18 7 -36 14 -40 14 -4 1 -12 6 -18 11
-12 10 -38 -46 -90 -186 -10 -27 -23 -53 -28 -57 -6 -4 -8 -8 -4 -8 5 0 -37
-120 -62 -175 -5 -11 -25 -63 -45 -115 -20 -52 -40 -104 -45 -115 -5 -11 -43
-110 -85 -220 -84 -221 -105 -251 -159 -241 -33 6 -113 36 -183 67 -24 11 -47
19 -53 19 -6 0 -18 4 -28 9 -9 5 -78 33 -152 61 -74 29 -144 55 -155 60 -11 4
-38 15 -60 25 -22 9 -47 19 -55 20 -8 2 -33 11 -55 21 -22 10 -44 19 -50 20
-5 1 -62 23 -125 49 -63 25 -135 53 -160 62 -25 8 -60 26 -77 40 -42 31 -42
59 -2 160 17 43 32 83 33 88 2 6 8 21 14 35 25 54 125 316 125 328 0 6 4 12 9
12 4 0 8 6 8 13 0 11 86 239 110 292 16 36 79 204 82 220 3 16 -3 19 -291 132
-47 18 -66 22 -75 13 -6 -6 -11 -14 -12 -18 0 -4 -4 -16 -9 -27 -41 -102 -108
-272 -110 -280 -1 -5 -6 -19 -10 -30 -5 -11 -17 -42 -27 -70 -10 -27 -23 -59
-28 -70 -12 -25 -91 -227 -94 -240 -2 -5 -7 -19 -11 -30 -30 -73 -127 -322
-129 -330 -2 -5 -7 -21 -13 -35 -6 -14 -23 -56 -38 -95 -15 -38 -34 -84 -41
-102 -8 -17 -14 -36 -14 -42 0 -6 -4 -19 -9 -29 -14 -28 -29 -64 -49 -117 -10
-27 -23 -59 -27 -70 -5 -11 -9 -22 -10 -25 -6 -16 -19 -49 -31 -77 -8 -17 -14
-33 -14 -36 0 -2 -8 -22 -17 -43 -10 -22 -18 -43 -19 -49 0 -5 -5 -19 -9 -30
-4 -11 -34 -85 -65 -165 -31 -80 -61 -154 -65 -165 -5 -11 -9 -22 -9 -25 -2
-8 -67 -172 -82 -207 -8 -17 -14 -33 -14 -36 0 -2 -8 -22 -17 -43 -9 -22 -18
-43 -19 -49 -2 -9 -50 -131 -77 -195 -5 -14 -11 -31 -13 -37 -3 -14 -83 -216
-114 -288 -8 -17 -22 -60 -25 -75 -1 -3 -9 -22 -18 -44 -9 -21 -17 -41 -17
-43 0 -3 -6 -19 -14 -36 -8 -18 -27 -63 -41 -102 -15 -38 -46 -119 -70 -180
-24 -60 -59 -153 -79 -205 -20 -52 -41 -104 -45 -115 -18 -43 -64 -158 -66
-165 -2 -10 -67 -176 -79 -205 -8 -16 -20 -48 -27 -70 -7 -22 -17 -44 -21 -49
-4 -6 -8 -18 -8 -28 0 -10 -5 -18 -10 -18 -6 0 -9 -3 -8 -7 1 -5 -6 -31 -17
-60 l-19 -52 -240 4 c-439 9 -726 14 -1166 20 -239 4 -527 7 -640 9 l-205 3
-205 82 c-113 46 -225 89 -250 98 -25 8 -49 19 -55 24 -5 5 -14 9 -21 9 -6 0
-29 8 -50 17 -22 9 -45 16 -51 14 -7 -1 -13 3 -13 9 0 5 -3 9 -7 8 -5 -1 -25
6 -47 15 -21 9 -42 17 -47 17 -5 0 -17 4 -27 9 -9 5 -28 13 -42 19 -14 5 -43
17 -65 26 -71 28 -100 39 -110 41 -5 2 -59 23 -120 48 -60 24 -121 48 -134 52
-13 4 -40 14 -60 23 -20 9 -38 16 -41 17 -3 1 -14 5 -25 10 -11 4 -49 18 -85
32 -36 13 -84 33 -107 44 -24 10 -47 19 -53 19 -6 0 -29 8 -53 19 -23 10 -78
33 -122 50 -44 17 -93 36 -110 42 -16 7 -32 13 -35 13 -3 1 -9 4 -15 7 -5 4
-28 12 -50 19 -22 7 -56 20 -75 28 -19 9 -37 16 -40 17 -3 1 -18 7 -35 14 -16
7 -34 14 -40 15 -5 1 -26 9 -45 18 -19 8 -53 21 -75 28 -22 7 -44 16 -50 20
-5 4 -30 15 -55 23 -50 17 -324 123 -355 137 -38 17 -152 60 -160 60 -4 0 -26
9 -49 19 -23 11 -72 32 -111 46 -38 14 -79 30 -90 35 -67 29 -159 61 -186 64
-43 5 -89 -9 -121 -38 -24 -20 -38 -45 -78 -141 -32 -79 -90 -235 -90 -244 0
-6 -5 -11 -10 -11 -6 0 -9 -3 -8 -7 2 -10 -13 -65 -21 -78 -4 -5 -16 -35 -28
-65 -12 -30 -38 -97 -57 -147 -20 -51 -51 -132 -70 -181 -19 -48 -55 -141 -81
-207 -25 -66 -54 -139 -63 -162 -9 -24 -24 -43 -32 -44 -8 -1 -82 -2 -165 -4
-526 -12 -675 -13 -678 -7 -2 4 3 23 11 42 9 19 16 40 18 45 2 8 122 316 149
380 4 11 9 25 11 30 1 6 8 24 15 40 7 17 13 32 14 35 1 3 7 18 13 33 7 16 12
31 12 34 0 3 6 19 14 36 8 18 49 122 92 232 42 110 82 214 89 230 17 40 28 68
30 80 2 6 12 32 24 57 11 26 21 51 21 55 0 7 37 103 61 158 5 11 20 52 35 90
14 39 31 84 39 100 7 17 21 50 30 75 9 25 22 56 28 70 5 14 11 30 13 35 3 10
114 294 129 330 4 11 9 22 9 25 3 10 59 156 72 185 12 28 42 106 112 290 14
39 32 79 39 90 6 11 12 24 11 28 0 8 16 53 33 92 15 36 161 410 164 420 1 6 8
26 16 45 7 19 12 38 11 43 -1 4 3 7 8 7 6 0 10 6 10 14 0 8 11 41 24 73 56
135 68 166 71 183 2 10 8 26 14 36 6 11 29 66 50 124 22 58 45 119 52 135 7
17 13 32 14 35 1 3 8 19 15 35 7 17 14 36 16 43 1 8 6 21 10 30 4 9 8 19 9 22
1 3 7 19 14 35 22 49 29 67 52 133 12 34 26 65 30 68 5 3 9 16 9 30 0 13 4 24
8 24 5 0 9 6 9 13 0 6 21 66 48 132 56 143 110 279 126 320 7 17 13 35 14 41
2 6 10 27 18 45 24 53 107 267 107 276 1 4 9 26 20 48 11 22 19 46 20 53 0 7
4 20 10 30 10 18 20 44 69 167 18 44 33 85 35 92 1 7 5 16 9 19 4 4 7 14 7 21
0 8 9 33 20 55 11 23 20 45 20 49 0 3 7 23 15 43 8 20 15 38 15 41 0 3 11 30
25 61 14 31 25 63 25 70 0 8 5 14 12 14 6 0 9 3 6 6 -5 4 30 102 71 199 5 11
39 99 76 195 37 96 73 189 81 207 8 17 14 33 14 36 0 2 8 22 17 43 9 22 18 42
19 47 1 4 3 9 4 12 1 3 3 8 4 13 2 9 25 69 44 110 8 18 13 34 11 36 -7 7 -184
77 -196 78 -7 1 -13 5 -13 10 0 4 -3 7 -7 6 -11 -3 -48 10 -102 34 -43 19 -44
19 -55 1 -16 -27 -54 -123 -50 -123 3 0 -3 -11 -12 -24 -8 -14 -15 -26 -14
-28 1 -2 -5 -20 -14 -42 -9 -21 -16 -42 -16 -47 0 -5 -4 -17 -10 -27 -5 -9
-34 -80 -63 -157 -30 -77 -57 -149 -62 -160 -5 -11 -9 -22 -10 -25 -1 -3 -7
-18 -14 -35 -7 -16 -32 -82 -56 -145 -24 -63 -53 -136 -64 -163 -11 -26 -21
-51 -22 -55 -9 -43 -40 -73 -75 -74 -25 0 -111 28 -189 63 -11 4 -45 18 -75
29 -30 11 -64 25 -75 30 -11 5 -99 39 -195 76 -96 36 -188 72 -204 80 -16 8
-33 14 -38 14 -5 0 -28 9 -50 20 -23 11 -49 20 -58 20 -9 0 -20 4 -26 9 -5 5
-36 18 -69 30 -61 22 -96 36 -127 52 -10 5 -24 9 -31 9 -8 0 -27 12 -42 26
-23 21 -27 31 -22 62 4 33 93 272 133 359 8 17 14 33 14 36 0 3 5 18 12 34 6
15 12 30 13 33 1 3 5 14 10 25 4 11 28 72 52 135 24 63 48 124 53 135 9 23 19
53 20 60 0 3 7 20 17 38 9 17 18 34 18 37 3 13 17 57 25 75 11 24 50 124 50
129 0 1 -33 15 -72 30 -40 15 -82 32 -93 37 -11 5 -49 20 -85 33 -36 13 -78
29 -93 35 -24 9 -29 8 -36 -12z m-156 -2086 c44 -17 89 -35 100 -40 11 -5 85
-34 165 -64 80 -31 159 -62 175 -68 17 -7 35 -13 41 -14 6 -2 27 -10 45 -18
19 -8 106 -43 194 -77 88 -34 169 -65 180 -70 129 -50 153 -72 140 -131 -4
-19 -10 -38 -14 -44 -4 -5 -13 -28 -20 -50 -7 -22 -19 -53 -26 -70 -30 -70
-68 -171 -68 -182 0 -7 -4 -13 -8 -13 -4 0 -10 -11 -13 -25 -3 -13 -36 -100
-71 -192 -65 -166 -70 -179 -95 -238 -7 -16 -15 -39 -17 -49 -2 -11 -7 -24
-12 -30 -5 -6 -12 -22 -16 -36 -4 -14 -13 -38 -20 -55 -7 -16 -35 -86 -61
-155 -56 -145 -78 -172 -133 -164 -20 3 -40 10 -46 14 -5 5 -12 8 -15 8 -3 0
-16 5 -30 10 -90 38 -345 134 -345 131 0 -1 -11 4 -25 11 -14 8 -27 15 -30 16
-6 1 -8 2 -175 66 -71 27 -139 54 -150 59 -11 4 -42 17 -70 27 -27 10 -59 23
-70 27 -11 5 -22 9 -25 10 -3 1 -18 7 -33 13 -15 7 -39 15 -53 18 -13 3 -27
10 -30 15 -3 5 -9 7 -13 5 -15 -9 -71 49 -73 74 -1 14 17 72 40 130 23 58 71
182 107 275 36 94 70 179 75 190 5 11 23 58 40 105 18 47 38 99 45 115 13 29
58 145 60 155 1 3 7 19 14 35 6 17 25 66 42 110 17 44 37 94 44 110 8 17 18
43 24 58 6 16 24 33 43 41 35 15 33 16 183 -43z m-937 -2090 c45 -24 87 -39
94 -35 4 3 8 0 8 -5 0 -6 5 -11 12 -11 7 0 98 -34 202 -75 105 -41 198 -75
206 -77 8 -2 17 -5 20 -8 3 -3 131 -54 285 -114 154 -59 288 -116 299 -126 19
-18 29 -78 16 -95 -4 -5 -17 -35 -28 -65 -11 -30 -26 -68 -33 -85 -7 -16 -13
-33 -14 -37 -2 -5 -4 -10 -5 -13 -1 -3 -3 -9 -4 -13 0 -4 -9 -26 -18 -47 -9
-22 -38 -94 -63 -160 -25 -66 -50 -129 -55 -140 -5 -11 -27 -67 -49 -125 -22
-58 -48 -126 -59 -152 -11 -25 -18 -49 -15 -52 4 -3 1 -6 -6 -6 -7 0 -10 -4
-7 -8 3 -5 -1 -19 -8 -33 -7 -13 -32 -76 -56 -139 -24 -63 -47 -119 -52 -124
-4 -6 -8 -18 -8 -27 0 -10 -12 -27 -27 -39 -22 -17 -36 -20 -67 -15 -22 3 -47
11 -55 18 -8 7 -15 11 -15 9 -1 -2 -12 1 -26 6 -134 52 -188 74 -202 82 -10 6
-22 10 -28 10 -10 0 -312 116 -365 140 -47 21 -181 70 -192 70 -7 0 -13 4 -13
9 0 5 -12 12 -27 15 -33 8 -141 50 -199 78 -70 33 -73 70 -19 193 8 17 32 77
54 135 22 58 46 119 52 135 7 17 12 33 11 38 -1 4 3 7 8 7 5 0 9 3 8 8 -2 8 9
48 22 77 5 11 36 88 68 170 32 83 63 159 67 170 4 11 9 25 10 30 2 6 16 44 33
85 62 154 113 283 115 293 8 43 81 71 125 48z m9031 -1066 c23 -8 56 -21 74
-29 17 -8 129 -51 247 -96 118 -45 229 -88 245 -95 17 -7 57 -23 90 -36 33
-12 79 -30 102 -40 23 -11 46 -19 50 -19 7 0 35 -11 168 -65 17 -7 56 -22 87
-35 32 -12 63 -29 70 -37 18 -23 15 -82 -9 -133 -11 -25 -30 -74 -43 -110 -13
-36 -27 -69 -32 -74 -4 -6 -8 -15 -8 -22 0 -6 -8 -29 -17 -50 -9 -22 -17 -41
-18 -44 0 -5 -20 -56 -41 -105 -6 -16 -47 -120 -89 -230 -42 -110 -81 -209
-86 -220 -23 -53 -109 -282 -109 -292 0 -7 -4 -13 -8 -13 -4 0 -8 -9 -9 -20
-2 -23 -39 -58 -63 -61 -27 -2 -55 3 -65 12 -5 5 -14 9 -21 9 -6 0 -29 8 -50
17 -22 9 -41 17 -44 18 -3 1 -14 6 -25 10 -11 5 -94 37 -185 72 -91 35 -223
87 -295 115 -71 28 -136 51 -142 51 -7 0 -13 4 -13 9 0 4 -6 8 -12 8 -7 0 -85
29 -173 64 -143 57 -162 67 -177 96 -16 32 -16 35 8 99 13 36 28 75 33 86 5
11 42 103 81 205 39 102 75 194 80 205 5 11 32 81 60 155 29 74 71 185 95 245
58 151 58 149 61 160 1 6 14 37 28 70 14 33 26 65 26 72 0 14 57 63 75 63 7 0
31 -7 54 -15z m-9769 -1106 c58 -23 119 -47 137 -55 17 -8 34 -14 38 -14 4 0
21 -6 38 -14 18 -8 82 -33 142 -56 61 -23 119 -46 130 -51 11 -4 103 -40 205
-80 102 -39 199 -77 215 -84 17 -7 52 -20 78 -30 50 -19 75 -50 72 -90 -2 -19
-55 -162 -93 -250 -9 -21 -17 -42 -18 -45 0 -3 -4 -14 -9 -25 -4 -11 -32 -83
-62 -160 -29 -77 -58 -149 -63 -160 -5 -11 -25 -63 -45 -115 -19 -52 -39 -104
-43 -114 -7 -17 -20 -19 -118 -21 -60 0 -115 -4 -121 -8 -6 -4 -14 -3 -18 3
-4 6 -10 8 -15 5 -4 -2 -77 -7 -161 -10 -152 -4 -434 -14 -579 -20 -214 -9
-244 -7 -293 14 -27 12 -53 21 -58 21 -22 0 -59 47 -60 76 0 43 3 64 11 64 4
0 7 6 7 13 1 10 208 547 233 602 5 11 25 63 45 115 20 52 57 145 81 207 24 62
44 117 44 123 0 5 4 10 8 10 4 0 8 9 9 19 1 10 10 39 21 63 11 23 23 53 26 66
9 28 52 51 86 46 14 -3 72 -23 130 -45z m8985 -1044 c22 -9 49 -20 60 -25 30
-13 239 -94 245 -95 3 0 24 -8 45 -17 22 -9 123 -49 225 -89 102 -39 200 -78
219 -86 18 -8 39 -16 45 -17 6 -1 20 -7 31 -14 16 -9 -5 -11 -105 -7 -180 6
-455 15 -597 19 -67 2 -126 7 -132 10 -5 4 -12 2 -16 -4 -4 -6 -11 -8 -16 -4
-5 3 -70 7 -145 8 -74 2 -136 5 -138 7 -4 4 50 148 99 265 16 37 35 65 48 71
24 11 69 3 132 -22z"/>
<path d="M8055 11233 c-35 -9 -85 -53 -107 -96 -11 -23 -21 -44 -21 -47 0 -3
-3 -15 -8 -28 -5 -13 -9 -26 -9 -29 0 -3 -7 -21 -16 -41 -9 -21 -20 -46 -24
-57 -40 -101 -50 -130 -50 -141 0 -8 -4 -14 -10 -14 -6 0 -9 -3 -8 -7 0 -5 -2
-17 -7 -28 -4 -11 -23 -60 -42 -110 -19 -49 -38 -99 -42 -110 -5 -11 -17 -40
-26 -65 -10 -25 -24 -59 -31 -77 -8 -17 -14 -37 -14 -45 0 -8 -4 -18 -8 -23
-5 -6 -25 -55 -46 -110 -21 -55 -44 -114 -52 -132 -8 -17 -14 -33 -14 -36 0
-2 -8 -22 -17 -43 -9 -22 -17 -43 -19 -49 -1 -5 -31 -84 -67 -175 -36 -91 -83
-212 -106 -270 -22 -58 -46 -118 -52 -135 -7 -16 -13 -32 -14 -35 -1 -3 -5
-14 -10 -25 -27 -68 -135 -347 -135 -349 0 -2 -6 -19 -14 -37 -8 -19 -15 -36
-15 -39 0 -3 -14 -36 -30 -75 -16 -38 -27 -73 -25 -77 3 -4 1 -8 -4 -8 -6 0
-12 -10 -16 -23 -3 -13 -13 -41 -22 -63 -10 -21 -19 -48 -21 -58 -2 -11 -7
-24 -12 -30 -4 -6 -24 -54 -43 -106 -20 -52 -39 -104 -43 -115 -5 -11 -7 -23
-7 -27 1 -5 -2 -8 -8 -8 -5 0 -10 -6 -10 -13 0 -12 -137 -373 -160 -422 -5
-11 -23 -58 -41 -105 -17 -47 -40 -104 -50 -127 -11 -23 -19 -44 -19 -47 0 -2
-5 -17 -12 -33 -6 -15 -12 -30 -13 -33 -1 -3 -5 -13 -9 -22 -4 -9 -8 -22 -10
-30 -1 -7 -4 -17 -8 -23 -3 -5 -32 -76 -63 -157 -59 -152 -63 -184 -35 -239
19 -37 41 -59 74 -74 55 -25 191 -75 204 -75 6 0 12 -4 12 -10 0 -5 6 -10 13
-10 6 0 46 -13 87 -29 78 -30 112 -43 120 -46 12 -4 67 -26 85 -34 21 -10 244
-96 465 -181 74 -28 154 -60 177 -71 24 -10 46 -19 49 -19 6 0 238 -91 314
-123 14 -5 32 -11 40 -13 8 -2 23 -7 35 -13 21 -10 150 -60 270 -106 39 -14
80 -30 93 -36 12 -5 32 -13 45 -18 12 -5 58 -23 102 -41 44 -18 85 -33 90 -34
6 -2 27 -10 49 -19 21 -9 43 -17 48 -17 6 0 22 -6 36 -14 15 -8 83 -36 152
-62 69 -26 129 -51 134 -55 6 -5 20 -9 32 -9 13 0 25 -4 28 -9 3 -5 18 -12 33
-16 16 -3 42 -12 58 -20 17 -7 111 -44 210 -83 99 -39 267 -104 373 -146 106
-42 195 -76 198 -76 3 0 20 -6 37 -14 47 -20 318 -126 397 -155 14 -5 27 -8
30 -8 3 1 19 -6 35 -15 27 -15 57 -28 78 -33 4 -2 9 -4 12 -5 3 -1 8 -3 13 -5
4 -1 18 -6 32 -12 14 -6 45 -19 70 -28 46 -17 73 -28 113 -44 75 -32 111 -33
167 -5 50 24 72 57 110 164 13 36 26 70 30 75 4 6 13 28 20 50 7 22 18 54 26
70 7 17 34 84 59 150 25 66 53 135 62 154 8 18 16 39 17 45 2 15 45 126 58
150 5 10 11 26 13 35 2 9 10 32 18 51 8 19 16 40 17 45 1 6 7 19 13 30 6 11
12 25 13 30 1 6 14 39 28 74 14 36 26 71 26 78 0 7 5 13 10 13 6 0 10 7 10 16
0 9 6 30 14 47 8 18 44 111 81 207 37 96 74 187 81 202 8 15 15 31 15 35 2 11
8 27 42 113 16 41 30 80 32 85 1 6 7 21 13 35 5 14 27 68 47 120 20 52 61 158
91 235 31 77 64 163 76 192 11 29 19 55 19 58 -1 3 5 18 13 33 9 15 54 128
102 252 47 124 91 239 99 255 7 17 16 41 20 55 4 14 16 43 25 65 10 22 27 65
39 95 11 30 26 69 32 85 7 17 13 32 14 35 1 3 7 19 14 35 6 17 19 50 28 75 9
25 20 50 23 55 4 6 13 28 20 50 7 22 15 45 19 50 3 6 6 15 7 20 1 6 32 84 68
175 77 190 83 233 46 297 -19 32 -38 48 -80 67 -30 14 -67 28 -83 31 -15 4
-30 11 -33 16 -3 5 -12 9 -20 9 -8 0 -33 8 -57 19 -23 10 -91 38 -152 60 -60
23 -123 49 -138 57 -16 7 -32 14 -37 14 -5 0 -21 5 -37 12 -15 6 -31 12 -35
13 -5 2 -10 4 -13 5 -3 1 -8 3 -12 5 -5 1 -19 7 -33 12 -68 30 -216 85 -227
86 -7 0 -13 4 -13 9 0 4 -7 8 -15 8 -8 0 -23 4 -33 9 -9 6 -78 33 -152 61 -74
28 -143 55 -154 61 -10 6 -26 12 -35 14 -15 3 -133 49 -206 80 -16 7 -50 20
-75 28 -25 9 -58 22 -75 28 -16 7 -32 13 -35 14 -3 1 -18 7 -35 14 -65 27
-240 95 -245 96 -3 0 -41 15 -85 32 -90 36 -125 50 -140 53 -5 1 -21 8 -35 15
-14 7 -63 28 -110 45 -104 39 -117 44 -155 60 -16 8 -34 14 -40 16 -8 1 -199
75 -270 104 -11 4 -47 18 -80 31 -33 12 -63 28 -67 33 -4 6 -8 8 -8 4 0 -8
-54 10 -130 44 -25 11 -49 21 -55 22 -18 3 -309 117 -337 132 -16 8 -28 12
-28 8 0 -3 -6 -2 -12 4 -7 5 -47 22 -88 36 -41 15 -88 33 -105 41 -16 7 -88
35 -160 63 -71 27 -139 53 -150 57 -11 5 -23 7 -27 7 -5 -1 -8 2 -8 6 0 5 -6
9 -12 9 -11 0 -89 30 -233 88 -11 4 -24 9 -30 11 -5 1 -28 10 -49 19 -42 18
-99 26 -131 18z"/>
</g>
</svg>
